# xmcd CD database file
#
# Track frame offsets:
#	187
#	19175
#	39687
#	57917
#	77962
#	96407
#	117157
#	139267
#	159772
#	181900
#
# Disc length: 2676 seconds
#
# Revision: 5
# Processed by: cddbd v1.5.2PL0 Copyright (c) Steve Scherf et al.
# Submitted via: CDex 1.70beta3
#
DISCID=800a720a
DTITLE=小田和正 - Far East Cafe
DYEAR=1990
DGENRE=J-Pop
TTITLE0=勝手に寂しくならないで
TTITLE1=春風に乱れて
TTITLE2=16号を下って
TTITLE3=君が戻って来るなんて
TTITLE4=Far East Cafe
TTITLE5=恋は大騒ぎ
TTITLE6=Little Tokyo
TTITLE7=time can wait
TTITLE8=good times and bad times
TTITLE9=あの人に会える
EXTD=YEAR: 1990
EXTT0=
EXTT1=
EXTT2=
EXTT3=
EXTT4=
EXTT5=
EXTT6=
EXTT7=
EXTT8=
EXTT9=
PLAYORDER=
